<svg width="34" height="35" viewBox="0 0 34 35" fill="none" xmlns="http://www.w3.org/2000/svg">
<path d="M19.8333 13.5625V17.7917H23.5167C23.8 17.7917 23.9417 18.0833 23.9417 18.375L23.375 21.1458C23.375 21.2917 23.0917 21.4375 22.95 21.4375H19.8333V32.0833H15.5833V21.5833H13.175C12.8917 21.5833 12.75 21.4375 12.75 21.1458V18.375C12.75 18.0833 12.8917 17.9375 13.175 17.9375H15.5833V13.125C15.5833 10.6458 17.425 8.75 19.8333 8.75H23.6583C23.9417 8.75 24.0833 8.89583 24.0833 9.1875V12.6875C24.0833 12.9792 23.9417 13.125 23.6583 13.125H20.2583C19.975 13.125 19.8333 13.2708 19.8333 13.5625V13.5625Z" stroke="black" stroke-width="1.5" stroke-miterlimit="10" stroke-linecap="round"/>
<path d="M21.25 32.0834H12.75C5.66671 32.0834 2.83337 29.1667 2.83337 21.8751V13.1251C2.83337 5.83341 5.66671 2.91675 12.75 2.91675H21.25C28.3334 2.91675 31.1667 5.83341 31.1667 13.1251V21.8751C31.1667 29.1667 28.3334 32.0834 21.25 32.0834Z" stroke="black" stroke-width="1.5" stroke-linecap="round" stroke-linejoin="round"/>
</svg>
