<svg width="37" height="35" viewBox="0 0 37 35" fill="none" xmlns="http://www.w3.org/2000/svg">
<path d="M13.875 32.0834H23.125C30.8334 32.0834 33.9167 29.1667 33.9167 21.8751V13.1251C33.9167 5.83341 30.8334 2.91675 23.125 2.91675H13.875C6.16671 2.91675 3.08337 5.83341 3.08337 13.1251V21.8751C3.08337 29.1667 6.16671 32.0834 13.875 32.0834Z" stroke="black" stroke-width="1.5" stroke-linecap="round" stroke-linejoin="round"/>
<path d="M18.5 22.6041C19.2086 22.6041 19.9102 22.4721 20.5649 22.2156C21.2195 21.959 21.8143 21.5831 22.3154 21.1091C22.8164 20.6351 23.2139 20.0725 23.4851 19.4532C23.7562 18.8339 23.8958 18.1702 23.8958 17.4999C23.8958 16.8296 23.7562 16.1659 23.4851 15.5466C23.2139 14.9274 22.8164 14.3647 22.3154 13.8907C21.8143 13.4168 21.2195 13.0408 20.5649 12.7843C19.9102 12.5278 19.2086 12.3958 18.5 12.3958C17.0689 12.3958 15.6964 12.9335 14.6845 13.8907C13.6726 14.8479 13.1041 16.1462 13.1041 17.4999C13.1041 18.8536 13.6726 20.1519 14.6845 21.1091C15.6964 22.0663 17.0689 22.6041 18.5 22.6041V22.6041Z" stroke="black" stroke-width="1.5" stroke-linecap="round" stroke-linejoin="round"/>
<path d="M27.1888 10.2083H27.2073" stroke="black" stroke-width="2" stroke-linecap="round" stroke-linejoin="round"/>
</svg>
